<svg id="SvgjsSvg1054" width="288" height="288" xmlns="http://www.w3.org/2000/svg" version="1.1" xmlns:xlink="http://www.w3.org/1999/xlink" xmlns:svgjs="http://svgjs.com/svgjs"><defs id="SvgjsDefs1055"></defs><g id="SvgjsG1056"><svg xmlns="http://www.w3.org/2000/svg" width="288" height="288" viewBox="0 0 64 64"><g transform="translate(335 -1642.95) scale(3.77953)" fill="#4c51bf" class="color000 svgShape"><circle cx="-80.169" cy="443.164" r="8.467" fill="#4c51bf" fill-rule="evenodd" class="color239fdb svgShape"></circle><path fill="#ffffff" d="m -83.147851,438.88693 0,5.3e-4 c -0.03382,0 -0.06761,0.0128 -0.09353,0.0388 -0.05182,0.0518 -0.05182,0.13525 0,0.18707 l 0.93586,0.93534 0.561206,0.56121 c 0.05182,0.0518 0.05182,0.13524 0,0.18707 -0.05182,0.0518 -0.135245,0.0518 -0.187069,0 l -0.561206,-0.56121 -0.93586,-0.93534 c -0.05182,-0.0518 -0.135245,-0.0518 -0.187069,0 -0.05182,0.0518 -0.05182,0.13523 0,0.18706 l 0.935861,0.93534 0.561206,0.5612 c 0.05182,0.0518 0.05182,0.13524 0,0.18707 -0.05182,0.0518 -0.135245,0.0518 -0.187069,0 l -0.561206,-0.56121 -0.93586,-0.93534 c -0.05182,-0.0518 -0.135245,-0.0518 -0.187069,0 -0.05182,0.0518 -0.05182,0.13526 0,0.18707 l 0.935344,0.93534 0.0016,0 0.560689,0.56069 c 0.05182,0.0518 0.05182,0.13524 0,0.18707 -0.05182,0.0518 -0.135245,0.0518 -0.187069,0 l -0.561723,-0.5612 -0.841809,-0.84181 -0.09353,-0.0935 c -0.05182,-0.0518 -0.135245,-0.0518 -0.187069,0 -0.05182,0.0518 -0.05182,0.13524 0,0.18707 l 0.09354,0.0935 0.841809,0.84181 0.561206,0.56173 0.28112,0.2806 a 0.39275481,0.39275481 0 0 0 0.430464,0.0837 l 0.405143,-0.17105 5.088062,5.39192 a 0.25463801,0.25463801 0 0 0 0.365352,0.005 l 0.318844,-0.31832 a 0.2702395,0.2702395 0 0 0 -0.0057,-0.38758 l -5.380034,-5.07824 0.171049,-0.40463 a 0.39275508,0.39275508 0 0 0 -0.08423,-0.43098 l -0.841809,-0.84181 -0.93586,-0.93534 c -0.0259,-0.0259 -0.05973,-0.0388 -0.09353,-0.0388 z m 6.520532,0.44287 c -0.871242,0.003 -1.586117,0.40894 -2.270145,1.09296 l -1.584916,1.58491 0.962732,0.90796 3.521748,-3.52227 c -0.219245,-0.0439 -0.428363,-0.0642 -0.629419,-0.0636 z m -4.320666,3.83232 -3.273186,2.97605 c -0.10662,0.0968 -0.110624,0.26305 -0.0088,0.36483 l 0.374655,0.37414 c 0.103321,0.1033 0.270815,0.1033 0.374137,0 l 3.107303,-3.1073 -0.574125,-0.60772 z" class="colorfff svgShape"></path></g></svg></g></svg>