<?xml version="1.0"?>
<svg xmlns="http://www.w3.org/2000/svg" id="Flat" height="512" viewBox="0 0 512 512" width="512" class=""><g><circle cx="256" cy="256" fill="#a3d4f7" r="232" data-original="#A3D4F7" class="active-path" style="fill:#5A67D8" data-old_color="#a3d4f7"/><circle cx="256" cy="256" fill="#3397e8" r="184" data-original="#3397E8" class="" style="fill:#4C51BF" data-old_color="#3397e8"/><g fill="#e9eef2"><path d="m280 176v112h16v144a16 16 0 0 0 16 16 16 16 0 0 0 16-16v-288h-16a32 32 0 0 0 -32 32z" data-original="#E9EEF2" class="" style="fill:#E9EEF2"/><path d="m248 136a8 8 0 0 0 -8 8v56h-16v-56a8 8 0 0 0 -16 0v56h-16v-56a8 8 0 0 0 -16 0v72a40.052 40.052 0 0 0 24 36.65v179.35a16 16 0 0 0 32 0v-179.35a40.052 40.052 0 0 0 24-36.65v-72a8 8 0 0 0 -8-8z" data-original="#E9EEF2" class="" style="fill:#E9EEF2"/></g></g> </svg>
